<svg width="18" height="18" viewBox="0 0 18 18" fill="none" xmlns="http://www.w3.org/2000/svg">
<path d="M17.3332 3.825L13.4998 0.608337L12.4248 1.88334L16.2582 5.1L17.3332 3.825ZM5.5665 1.88334L4.49984 0.608337L0.666504 3.81667L1.7415 5.09167L5.5665 1.88334ZM9.4165 5.725H8.1665V10.725L12.1248 13.1L12.7498 12.075L9.4165 10.1V5.725ZM8.99984 2.39167C4.85817 2.39167 1.49984 5.75 1.49984 9.89167C1.49984 14.0333 4.84984 17.3917 8.99984 17.3917C13.1415 17.3917 16.4998 14.0333 16.4998 9.89167C16.4998 5.75 13.1415 2.39167 8.99984 2.39167ZM8.99984 15.725C5.77484 15.725 3.1665 13.1167 3.1665 9.89167C3.1665 6.66667 5.77484 4.05834 8.99984 4.05834C12.2248 4.05834 14.8332 6.66667 14.8332 9.89167C14.8332 13.1167 12.2248 15.725 8.99984 15.725Z" fill="white"/>
</svg>
